<mxfile host="Electron" modified="2023-07-01T14:44:38.507Z" agent="Mozilla/5.0 (Macintosh; Intel Mac OS X 10_15_7) AppleWebKit/537.36 (KHTML, like Gecko) draw.io/21.3.7 Chrome/112.0.5615.204 Electron/24.5.0 Safari/537.36" etag="uhWVRCHDznGqv2gLvhn5" version="21.3.7" type="device">
  <diagram name="第 1 页" id="0Q2NC6H3fWaOLIkpraCQ">
    <mxGraphModel dx="513" dy="341" grid="0" gridSize="10" guides="1" tooltips="1" connect="1" arrows="1" fold="1" page="1" pageScale="1" pageWidth="827" pageHeight="1169" math="0" shadow="0">
      <root>
        <mxCell id="0" />
        <mxCell id="1" parent="0" />
        <mxCell id="LtXhnj66ykpueWbNTKgC-1" value="" style="endArrow=classic;html=1;rounded=0;" edge="1" parent="1">
          <mxGeometry width="50" height="50" relative="1" as="geometry">
            <mxPoint x="500" y="720" as="sourcePoint" />
            <mxPoint x="500" y="560" as="targetPoint" />
          </mxGeometry>
        </mxCell>
        <mxCell id="LtXhnj66ykpueWbNTKgC-2" value="" style="endArrow=classic;html=1;rounded=0;" edge="1" parent="1">
          <mxGeometry width="50" height="50" relative="1" as="geometry">
            <mxPoint x="459.83" y="720" as="sourcePoint" />
            <mxPoint x="460" y="560" as="targetPoint" />
          </mxGeometry>
        </mxCell>
        <mxCell id="LtXhnj66ykpueWbNTKgC-3" value="" style="endArrow=classic;html=1;rounded=0;" edge="1" parent="1">
          <mxGeometry width="50" height="50" relative="1" as="geometry">
            <mxPoint x="380" y="720" as="sourcePoint" />
            <mxPoint x="380" y="560" as="targetPoint" />
          </mxGeometry>
        </mxCell>
        <mxCell id="LtXhnj66ykpueWbNTKgC-4" value="" style="endArrow=classic;html=1;rounded=0;" edge="1" parent="1">
          <mxGeometry width="50" height="50" relative="1" as="geometry">
            <mxPoint x="419.72" y="720" as="sourcePoint" />
            <mxPoint x="420" y="560" as="targetPoint" />
          </mxGeometry>
        </mxCell>
        <mxCell id="LtXhnj66ykpueWbNTKgC-5" value="" style="endArrow=classic;html=1;rounded=0;" edge="1" parent="1">
          <mxGeometry width="50" height="50" relative="1" as="geometry">
            <mxPoint x="540" y="720" as="sourcePoint" />
            <mxPoint x="540" y="560" as="targetPoint" />
          </mxGeometry>
        </mxCell>
        <mxCell id="LtXhnj66ykpueWbNTKgC-6" value="&lt;font face=&quot;Georgia&quot;&gt;[CLS]&lt;/font&gt;" style="text;html=1;align=center;verticalAlign=middle;resizable=0;points=[];autosize=1;strokeColor=none;fillColor=none;" vertex="1" parent="1">
          <mxGeometry x="195" y="718" width="50" height="30" as="geometry" />
        </mxCell>
        <mxCell id="LtXhnj66ykpueWbNTKgC-7" value="&lt;font color=&quot;#ea6b66&quot; face=&quot;宋体-简&quot;&gt;&amp;lt;t&amp;gt;使&lt;/font&gt;" style="text;html=1;align=center;verticalAlign=middle;resizable=0;points=[];autosize=1;strokeColor=none;fillColor=none;" vertex="1" parent="1">
          <mxGeometry x="340" y="718" width="60" height="30" as="geometry" />
        </mxCell>
        <mxCell id="LtXhnj66ykpueWbNTKgC-8" value="&lt;font color=&quot;#ea6b66&quot; face=&quot;宋体-简&quot;&gt;用&amp;lt;/t&amp;gt;&lt;/font&gt;" style="text;html=1;align=center;verticalAlign=middle;resizable=0;points=[];autosize=1;strokeColor=none;fillColor=none;" vertex="1" parent="1">
          <mxGeometry x="390" y="718" width="60" height="30" as="geometry" />
        </mxCell>
        <mxCell id="LtXhnj66ykpueWbNTKgC-9" value="..." style="text;html=1;align=center;verticalAlign=middle;resizable=0;points=[];autosize=1;strokeColor=none;fillColor=none;" vertex="1" parent="1">
          <mxGeometry x="230" y="718" width="28" height="26" as="geometry" />
        </mxCell>
        <mxCell id="LtXhnj66ykpueWbNTKgC-10" value="&lt;font color=&quot;#7ea6e0&quot;&gt;沥&lt;/font&gt;" style="text;html=1;align=center;verticalAlign=middle;resizable=0;points=[];autosize=1;strokeColor=none;fillColor=none;fontFamily=宋体-简;" vertex="1" parent="1">
          <mxGeometry x="445" y="720" width="30" height="26" as="geometry" />
        </mxCell>
        <mxCell id="LtXhnj66ykpueWbNTKgC-11" value="&lt;font color=&quot;#7ea6e0&quot;&gt;青&lt;/font&gt;" style="text;html=1;align=center;verticalAlign=middle;resizable=0;points=[];autosize=1;strokeColor=none;fillColor=none;fontFamily=宋体-简;" vertex="1" parent="1">
          <mxGeometry x="485" y="720" width="30" height="26" as="geometry" />
        </mxCell>
        <mxCell id="LtXhnj66ykpueWbNTKgC-12" value="&lt;font color=&quot;#7ea6e0&quot;&gt;石&lt;/font&gt;" style="text;html=1;align=center;verticalAlign=middle;resizable=0;points=[];autosize=1;strokeColor=none;fillColor=none;fontFamily=宋体-简;" vertex="1" parent="1">
          <mxGeometry x="525" y="720" width="30" height="26" as="geometry" />
        </mxCell>
        <mxCell id="LtXhnj66ykpueWbNTKgC-13" value="" style="endArrow=classic;html=1;rounded=0;" edge="1" parent="1">
          <mxGeometry width="50" height="50" relative="1" as="geometry">
            <mxPoint x="340" y="720" as="sourcePoint" />
            <mxPoint x="340" y="560" as="targetPoint" />
          </mxGeometry>
        </mxCell>
        <mxCell id="LtXhnj66ykpueWbNTKgC-14" value="开" style="text;html=1;align=center;verticalAlign=middle;resizable=0;points=[];autosize=1;strokeColor=none;fillColor=none;fontFamily=宋体-简;" vertex="1" parent="1">
          <mxGeometry x="239" y="718" width="40" height="30" as="geometry" />
        </mxCell>
        <mxCell id="LtXhnj66ykpueWbNTKgC-15" value="发" style="text;html=1;align=center;verticalAlign=middle;resizable=0;points=[];autosize=1;strokeColor=none;fillColor=none;fontFamily=宋体-简;" vertex="1" parent="1">
          <mxGeometry x="279" y="718" width="40" height="30" as="geometry" />
        </mxCell>
        <mxCell id="LtXhnj66ykpueWbNTKgC-16" value="和" style="text;html=1;align=center;verticalAlign=middle;resizable=0;points=[];autosize=1;strokeColor=none;fillColor=none;fontFamily=宋体-简;" vertex="1" parent="1">
          <mxGeometry x="319" y="718" width="40" height="30" as="geometry" />
        </mxCell>
        <mxCell id="LtXhnj66ykpueWbNTKgC-17" value="" style="endArrow=classic;html=1;rounded=0;" edge="1" parent="1">
          <mxGeometry width="50" height="50" relative="1" as="geometry">
            <mxPoint x="580" y="720" as="sourcePoint" />
            <mxPoint x="580" y="560" as="targetPoint" />
          </mxGeometry>
        </mxCell>
        <mxCell id="LtXhnj66ykpueWbNTKgC-18" value="" style="endArrow=classic;html=1;rounded=0;" edge="1" parent="1">
          <mxGeometry width="50" height="50" relative="1" as="geometry">
            <mxPoint x="300" y="720" as="sourcePoint" />
            <mxPoint x="300" y="560" as="targetPoint" />
          </mxGeometry>
        </mxCell>
        <mxCell id="LtXhnj66ykpueWbNTKgC-20" value="&lt;font face=&quot;Georgia&quot;&gt;[SEP]&lt;/font&gt;" style="text;html=1;align=center;verticalAlign=middle;resizable=0;points=[];autosize=1;strokeColor=none;fillColor=none;" vertex="1" parent="1">
          <mxGeometry x="556" y="718" width="50" height="30" as="geometry" />
        </mxCell>
        <mxCell id="LtXhnj66ykpueWbNTKgC-21" value="..." style="text;html=1;align=center;verticalAlign=middle;resizable=0;points=[];autosize=1;strokeColor=none;fillColor=none;" vertex="1" parent="1">
          <mxGeometry x="542" y="718" width="28" height="26" as="geometry" />
        </mxCell>
        <mxCell id="LtXhnj66ykpueWbNTKgC-22" value="" style="endArrow=classic;html=1;rounded=0;" edge="1" parent="1">
          <mxGeometry width="50" height="50" relative="1" as="geometry">
            <mxPoint x="260" y="720" as="sourcePoint" />
            <mxPoint x="260" y="560" as="targetPoint" />
          </mxGeometry>
        </mxCell>
        <mxCell id="LtXhnj66ykpueWbNTKgC-23" value="" style="endArrow=classic;html=1;rounded=0;" edge="1" parent="1">
          <mxGeometry width="50" height="50" relative="1" as="geometry">
            <mxPoint x="220" y="720" as="sourcePoint" />
            <mxPoint x="220" y="560" as="targetPoint" />
          </mxGeometry>
        </mxCell>
        <mxCell id="LtXhnj66ykpueWbNTKgC-19" value="&lt;font style=&quot;font-size: 22px;&quot; face=&quot;Georgia&quot;&gt;LERT&lt;/font&gt;" style="rounded=1;whiteSpace=wrap;html=1;fillColor=#fff2cc;strokeColor=#d6b656;" vertex="1" parent="1">
          <mxGeometry x="190" y="616" width="410" height="84" as="geometry" />
        </mxCell>
        <mxCell id="LtXhnj66ykpueWbNTKgC-24" value="" style="shape=curlyBracket;whiteSpace=wrap;html=1;rounded=1;flipH=1;labelPosition=right;verticalLabelPosition=middle;align=left;verticalAlign=middle;direction=north;" vertex="1" parent="1">
          <mxGeometry x="452.5" y="744" width="95" height="20" as="geometry" />
        </mxCell>
        <mxCell id="LtXhnj66ykpueWbNTKgC-25" value="&lt;font face=&quot;Georgia&quot;&gt;argument&lt;/font&gt;" style="text;html=1;align=center;verticalAlign=middle;resizable=0;points=[];autosize=1;strokeColor=none;fillColor=none;" vertex="1" parent="1">
          <mxGeometry x="465" y="759" width="70" height="26" as="geometry" />
        </mxCell>
        <mxCell id="LtXhnj66ykpueWbNTKgC-26" value="" style="shape=curlyBracket;whiteSpace=wrap;html=1;rounded=1;flipH=1;labelPosition=right;verticalLabelPosition=middle;align=left;verticalAlign=middle;direction=north;" vertex="1" parent="1">
          <mxGeometry x="358" y="744" width="82" height="20" as="geometry" />
        </mxCell>
        <mxCell id="LtXhnj66ykpueWbNTKgC-27" value="&lt;font face=&quot;Georgia&quot;&gt;target word&lt;/font&gt;" style="text;html=1;align=center;verticalAlign=middle;resizable=0;points=[];autosize=1;strokeColor=none;fillColor=none;" vertex="1" parent="1">
          <mxGeometry x="359.5" y="759" width="79" height="26" as="geometry" />
        </mxCell>
        <mxCell id="LtXhnj66ykpueWbNTKgC-28" value="&lt;font face=&quot;Times New Roman&quot; style=&quot;font-size: 14px;&quot;&gt;0&lt;/font&gt;" style="text;html=1;align=center;verticalAlign=middle;resizable=0;points=[];autosize=1;strokeColor=none;fillColor=none;fontSize=14;" vertex="1" parent="1">
          <mxGeometry x="208" y="535" width="25" height="29" as="geometry" />
        </mxCell>
        <mxCell id="LtXhnj66ykpueWbNTKgC-29" value="&lt;font face=&quot;Times New Roman&quot; style=&quot;font-size: 14px;&quot;&gt;0&lt;/font&gt;" style="text;html=1;align=center;verticalAlign=middle;resizable=0;points=[];autosize=1;strokeColor=none;fillColor=none;fontSize=14;" vertex="1" parent="1">
          <mxGeometry x="247" y="535" width="25" height="29" as="geometry" />
        </mxCell>
        <mxCell id="LtXhnj66ykpueWbNTKgC-30" value="&lt;font face=&quot;Times New Roman&quot; style=&quot;font-size: 14px;&quot;&gt;0&lt;/font&gt;" style="text;html=1;align=center;verticalAlign=middle;resizable=0;points=[];autosize=1;strokeColor=none;fillColor=none;fontSize=14;" vertex="1" parent="1">
          <mxGeometry x="286.5" y="535" width="25" height="29" as="geometry" />
        </mxCell>
        <mxCell id="LtXhnj66ykpueWbNTKgC-31" value="&lt;font face=&quot;Times New Roman&quot; style=&quot;font-size: 14px;&quot;&gt;0&lt;/font&gt;" style="text;html=1;align=center;verticalAlign=middle;resizable=0;points=[];autosize=1;strokeColor=none;fillColor=none;fontSize=14;" vertex="1" parent="1">
          <mxGeometry x="326.5" y="535" width="25" height="29" as="geometry" />
        </mxCell>
        <mxCell id="LtXhnj66ykpueWbNTKgC-32" value="&lt;font face=&quot;Times New Roman&quot; style=&quot;font-size: 14px;&quot;&gt;0&lt;/font&gt;" style="text;html=1;align=center;verticalAlign=middle;resizable=0;points=[];autosize=1;strokeColor=none;fillColor=none;fontSize=14;" vertex="1" parent="1">
          <mxGeometry x="367" y="535" width="25" height="29" as="geometry" />
        </mxCell>
        <mxCell id="LtXhnj66ykpueWbNTKgC-33" value="&lt;font face=&quot;Times New Roman&quot; style=&quot;font-size: 14px;&quot;&gt;0&lt;/font&gt;" style="text;html=1;align=center;verticalAlign=middle;resizable=0;points=[];autosize=1;strokeColor=none;fillColor=none;fontSize=14;" vertex="1" parent="1">
          <mxGeometry x="407.5" y="535" width="25" height="29" as="geometry" />
        </mxCell>
        <mxCell id="LtXhnj66ykpueWbNTKgC-34" value="&lt;font face=&quot;Times New Roman&quot; style=&quot;font-size: 14px;&quot;&gt;1&lt;/font&gt;" style="text;html=1;align=center;verticalAlign=middle;resizable=0;points=[];autosize=1;strokeColor=none;fillColor=none;fontSize=14;" vertex="1" parent="1">
          <mxGeometry x="447.5" y="535" width="25" height="29" as="geometry" />
        </mxCell>
        <mxCell id="LtXhnj66ykpueWbNTKgC-35" value="&lt;font face=&quot;Times New Roman&quot; style=&quot;font-size: 14px;&quot;&gt;2&lt;/font&gt;" style="text;html=1;align=center;verticalAlign=middle;resizable=0;points=[];autosize=1;strokeColor=none;fillColor=none;fontSize=14;" vertex="1" parent="1">
          <mxGeometry x="487.5" y="535" width="25" height="29" as="geometry" />
        </mxCell>
        <mxCell id="LtXhnj66ykpueWbNTKgC-36" value="&lt;font face=&quot;Times New Roman&quot; style=&quot;font-size: 14px;&quot;&gt;2&lt;/font&gt;" style="text;html=1;align=center;verticalAlign=middle;resizable=0;points=[];autosize=1;strokeColor=none;fillColor=none;fontSize=14;" vertex="1" parent="1">
          <mxGeometry x="527.5" y="535" width="25" height="29" as="geometry" />
        </mxCell>
        <mxCell id="LtXhnj66ykpueWbNTKgC-37" value="&lt;font face=&quot;Times New Roman&quot; style=&quot;font-size: 14px;&quot;&gt;0&lt;/font&gt;" style="text;html=1;align=center;verticalAlign=middle;resizable=0;points=[];autosize=1;strokeColor=none;fillColor=none;fontSize=14;" vertex="1" parent="1">
          <mxGeometry x="565" y="535" width="25" height="29" as="geometry" />
        </mxCell>
        <mxCell id="LtXhnj66ykpueWbNTKgC-38" value="&lt;font style=&quot;font-size: 14px;&quot; face=&quot;Georgia&quot;&gt;MLP&lt;/font&gt;" style="rounded=1;whiteSpace=wrap;html=1;fillColor=#f8cecc;strokeColor=#b85450;" vertex="1" parent="1">
          <mxGeometry x="192" y="585" width="406" height="20" as="geometry" />
        </mxCell>
        <mxCell id="LtXhnj66ykpueWbNTKgC-39" value="&lt;font style=&quot;font-size: 10px;&quot; face=&quot;Georgia&quot;&gt;argument&lt;br&gt;&lt;font color=&quot;#67ab9f&quot;&gt;start&lt;/font&gt; position&lt;/font&gt;" style="text;html=1;align=center;verticalAlign=middle;resizable=0;points=[];autosize=1;strokeColor=none;fillColor=none;" vertex="1" parent="1">
          <mxGeometry x="421.5" y="464" width="77" height="41" as="geometry" />
        </mxCell>
        <mxCell id="LtXhnj66ykpueWbNTKgC-40" value="&lt;font style=&quot;font-size: 10px;&quot; face=&quot;Georgia&quot;&gt;argument&lt;br&gt;&lt;font color=&quot;#67ab9f&quot;&gt;end&lt;/font&gt; position&lt;/font&gt;" style="text;html=1;align=center;verticalAlign=middle;resizable=0;points=[];autosize=1;strokeColor=none;fillColor=none;" vertex="1" parent="1">
          <mxGeometry x="503.5" y="464" width="73" height="41" as="geometry" />
        </mxCell>
        <mxCell id="LtXhnj66ykpueWbNTKgC-41" value="" style="endArrow=classic;html=1;rounded=0;entryX=0.5;entryY=0.043;entryDx=0;entryDy=0;entryPerimeter=0;dashed=1;" edge="1" parent="1" source="LtXhnj66ykpueWbNTKgC-39" target="LtXhnj66ykpueWbNTKgC-34">
          <mxGeometry width="50" height="50" relative="1" as="geometry">
            <mxPoint x="364" y="535" as="sourcePoint" />
            <mxPoint x="414" y="485" as="targetPoint" />
          </mxGeometry>
        </mxCell>
        <mxCell id="LtXhnj66ykpueWbNTKgC-43" value="" style="endArrow=classic;html=1;rounded=0;entryX=0.5;entryY=0.043;entryDx=0;entryDy=0;entryPerimeter=0;dashed=1;" edge="1" parent="1">
          <mxGeometry width="50" height="50" relative="1" as="geometry">
            <mxPoint x="539.75" y="504" as="sourcePoint" />
            <mxPoint x="539.75" y="535" as="targetPoint" />
          </mxGeometry>
        </mxCell>
      </root>
    </mxGraphModel>
  </diagram>
</mxfile>
